# xmcd
#
# Track frame offsets:
#	150
#	10436
#	23398
#	33284
#	45184
#	58437
#	71880
#	84077
#	97398
#	114625
#	124811
#	135658
#	144398
#	161125
#	172967
#	185151
#	197479
#	208311
#	218637
#	228608
#	238568
#
# Disc length: 3317 seconds
#
# Revision: 1
# Processed by: cddbd v1.5.2PL0 Copyright (c) Steve Scherf et al.
# Submitted via: audiograbber 1.83.01
#
DISCID=300cf315
DTITLE=Ike and Tina Turner - The Soul Of Ike And Tina and Dynamite
DYEAR=2004
DGENRE=
TTITLE0=I'm Jealous
TTITLE1=I Idolize You
TTITLE2=If
TTITLE3=Letter from Tina
TTITLE4=You Can't Love Two
TTITLE5=I Had A Notion
TTITLE6=A Fool In Love
TTITLE7=Sleepless
TTITLE8=Chances Are
TTITLE9=You Can't Blame Me
TTITLE10=You're My Baby
TTITLE11=The Way You Love Me
TTITLE12=You Should've Treated Me Right
TTITLE13=Poor Fool
TTITLE14=Tra La La La La
TTITLE15=Won't You Forgive Me
TTITLE16=I Dig You
TTITLE17=Tina's Dilemma
TTITLE18=Mind In A Whirl
TTITLE19=The Argument
TTITLE20=Worried And Hurtin' Inside
EXTD=
EXTT0=
EXTT1=
EXTT2=
EXTT3=
EXTT4=
EXTT5=
EXTT6=
EXTT7=
EXTT8=
EXTT9=
EXTT10=
EXTT11=
EXTT12=
EXTT13=
EXTT14=
EXTT15=
EXTT16=
EXTT17=
EXTT18=
EXTT19=
EXTT20=
PLAYORDER=
